<?xml version="1.0" encoding="utf-8"?>
<!-- Generator: Adobe Illustrator 23.0.3, SVG Export Plug-In . SVG Version: 6.00 Build 0)  -->
<svg version="1.1" id="Layer_1" xmlns="http://www.w3.org/2000/svg" xmlns:xlink="http://www.w3.org/1999/xlink" x="0px" y="0px"
	 viewBox="0 0 180 19" style="enable-background:new 0 0 180 19;" xml:space="preserve">
<style type="text/css">
	.st0{fill:#F9FFF3;}
	.st1{fill:#FFFFFF;}
	.st2{fill:#78B73B;}
</style>
<g>
	<path class="st0" d="M34.6,6.4h2.2l3.4,4.9V6.4h2.6v9.2h-2.2l-3.4-4.9v4.9h-2.6V6.4z"/>
	<path class="st0" d="M44.1,6.4h6.8v2.1h-4.2V10h3.6v2h-3.6v1.5h4.2v2.1h-6.8V6.4z"/>
	<path class="st0" d="M53.6,8.4h-2.5v-2h7.6v2h-2.5v7.2h-2.6V8.4z"/>
	<path class="st0" d="M63.8,14.3l3.9-5.8H64V6.4h7.1v1.4l-3.8,5.8h3.9v2.1h-7.4C63.8,15.7,63.8,14.3,63.8,14.3z"/>
	<path class="st0" d="M72.1,6.4h6.8v2.1h-4.2V10h3.6v2h-3.6v1.5h4.2v2.1h-6.8V6.4z"/>
	<path class="st0" d="M79.7,6.4h4.6c1.1,0,1.8,0.3,2.4,0.9c0.5,0.6,0.8,1.4,0.8,2.4c0,0.6-0.1,1.2-0.4,1.6c-0.3,0.5-0.7,0.8-1.2,1.1
		c0.1,0.1,0.2,0.2,0.3,0.3c0.1,0.1,0.2,0.3,0.3,0.5l1,2.4h-2.7l-0.9-2.2c-0.1-0.2-0.2-0.3-0.3-0.4c-0.1-0.1-0.3-0.1-0.5-0.1h-0.7
		v2.7h-2.6V6.4H79.7z M83.7,10.9c0.4,0,0.7-0.1,0.9-0.3c0.2-0.2,0.3-0.5,0.3-0.9c0-0.8-0.4-1.2-1.1-1.2h-1.5v2.4H83.7z"/>
	<path class="st0" d="M89.2,14.6c-0.8-0.8-1.2-2-1.2-3.6c0-1.7,0.4-2.9,1.1-3.7c0.8-0.8,1.9-1.1,3.4-1.1s2.7,0.4,3.4,1.1
		c0.8,0.8,1.1,2,1.1,3.6s-0.4,2.8-1.2,3.6c-0.8,0.8-1.9,1.1-3.4,1.1S90,15.4,89.2,14.6z M94.1,12.9c0.3-0.4,0.5-1,0.5-1.9
		s-0.1-1.5-0.4-1.9s-0.8-0.6-1.5-0.6s-1.2,0.2-1.5,0.6c-0.3,0.4-0.4,1-0.4,1.9s0.2,1.5,0.5,1.9s0.8,0.6,1.4,0.6S93.8,13.3,94.1,12.9
		z"/>
	<path class="st0" d="M103.8,14.5c-0.8-0.8-1.3-2-1.3-3.5c0-1.6,0.4-2.7,1.3-3.6c0.8-0.8,2.1-1.2,3.7-1.2c0.5,0,1,0,1.4,0.1
		s0.9,0.2,1.3,0.4v2.4c-0.8-0.4-1.6-0.5-2.5-0.5c-0.8,0-1.5,0.2-1.9,0.6s-0.6,1-0.6,1.9c0,0.8,0.2,1.5,0.6,1.8
		c0.4,0.4,1,0.6,1.9,0.6s1.8-0.2,2.6-0.5v2.4c-0.9,0.3-1.8,0.5-2.7,0.5C105.9,15.8,104.7,15.4,103.8,14.5z"/>
	<path class="st0" d="M114.4,6.4h2.8l3.4,9.2h-2.7l-0.7-2h-2.7l-0.7,2H111L114.4,6.4z M116.8,11.7l-1-2.7l-1,2.7H116.8z"/>
	<path class="st0" d="M121.2,6.4h2.5l2.2,4.7l2.2-4.7h2.5v9.2H128V11l-1.4,3h-1.4l-1.4-3v4.6h-2.6C121.2,15.6,121.2,6.4,121.2,6.4z"
		/>
	<path class="st0" d="M131.9,6.4h4.6c1.1,0,1.9,0.3,2.4,0.9s0.8,1.4,0.8,2.5c0,0.6-0.1,1.2-0.4,1.7c-0.3,0.5-0.6,0.9-1.1,1.2
		s-1.1,0.4-1.7,0.4h-1.9v2.5H132V6.4H131.9z M135.9,11.1c0.4,0,0.7-0.1,0.9-0.4c0.2-0.2,0.3-0.5,0.3-0.9s-0.1-0.7-0.3-1
		c-0.2-0.2-0.5-0.4-0.9-0.4h-1.4V11L135.9,11.1L135.9,11.1z"/>
	<path class="st0" d="M141.5,14.8c-0.8-0.6-1.2-1.6-1.2-2.7V6.4h2.6v5.4c0,1.1,0.5,1.7,1.6,1.7s1.6-0.6,1.6-1.7V6.4h2.6v5.7
		c0,0.8-0.2,1.5-0.5,2c-0.4,0.6-0.8,1-1.5,1.3c-0.6,0.3-1.4,0.4-2.2,0.4C143.3,15.8,142.3,15.4,141.5,14.8z"/>
	<path class="st0" d="M151.2,15.6c-0.5-0.1-1-0.2-1.4-0.4V13c0.4,0.2,0.9,0.4,1.4,0.5s1,0.2,1.4,0.2c0.5,0,0.9,0,1.1-0.1
		c0.2-0.1,0.3-0.3,0.3-0.5s-0.1-0.3-0.2-0.4c-0.1-0.1-0.3-0.2-0.5-0.3s-0.5-0.2-1-0.3c-0.1,0-0.3-0.1-0.3-0.1
		c-0.6-0.2-1.1-0.4-1.4-0.7c-0.3-0.2-0.6-0.5-0.7-0.9c-0.2-0.3-0.2-0.8-0.2-1.3c0-0.9,0.3-1.6,0.9-2.1c0.6-0.5,1.6-0.7,2.8-0.7
		c0.5,0,1,0,1.5,0.1s1,0.2,1.3,0.3v2.2c-0.8-0.3-1.6-0.5-2.4-0.5c-0.5,0-0.9,0-1.1,0.1c-0.2,0.1-0.4,0.2-0.4,0.5
		c0,0.2,0.1,0.3,0.2,0.4c0.1,0.1,0.3,0.2,0.5,0.3s0.6,0.2,1.1,0.3c0.7,0.2,1.3,0.4,1.6,0.7c0.4,0.3,0.6,0.6,0.8,1
		c0.1,0.4,0.2,0.8,0.2,1.3c0,0.9-0.3,1.5-1,2c-0.6,0.5-1.6,0.8-2.8,0.8C152.3,15.8,151.7,15.7,151.2,15.6z"/>
</g>
<circle class="st1" cx="20.6" cy="9.5" r="8.7"/>
<g>
	<g>
		<path d="M19.8,13c0-0.3,0-0.6,0-0.9c0-0.1,0-0.3,0.1-0.4c0.1-0.1,0.1-0.3,0.3-0.3c0.1-0.1,0.3-0.2,0.5-0.3
			c0.1-0.1,0.2-0.1,0.4-0.2c0.1,0,0.1-0.1,0.1-0.1c0.1-0.1,0.2-0.2,0.3-0.4c0-0.1,0.1-0.2,0.1-0.3c0.1-0.3,0.2-0.6,0.4-0.9
			c0.3-0.5,0.7-0.8,1.2-1.1c0.3-0.2,0.7-0.2,1-0.3c0.4,0,0.7,0,1.1,0c0.5,0.1,0.9,0.3,1.3,0.6c0.3,0.2,0.5,0.5,0.7,0.8
			c0.1,0.2,0.2,0.4,0.3,0.6c0.1,0.3,0.2,0.7,0.2,1c0,0.4-0.1,0.8-0.2,1.1c-0.1,0.2-0.2,0.5-0.3,0.7c-0.3,0.5-0.7,0.8-1.2,1.1
			c-0.3,0.2-0.6,0.3-1,0.3c-0.5,0.1-1,0-1.5-0.1s-0.9-0.4-1.2-0.7C22,13,21.7,12.5,21.5,12c0-0.1,0-0.1-0.1-0.2v-0.1c0,0,0,0-0.1,0
			c0,0,0,0-0.1,0s-0.3,0.1-0.4,0.2c-0.2,0.1-0.3,0.3-0.3,0.4c0,0.1,0,0.2,0,0.3c0,0.4,0,0.9,0,1.3V14c0,0,0,0-0.1,0.1c0,0,0,0-0.1,0
			c-0.2,0-0.4,0-0.6,0l0,0c-0.1,0-0.1,0-0.1-0.1v-0.1C19.8,13.6,19.8,13.3,19.8,13L19.8,13z M24.5,12.7c0.2,0,0.3,0,0.5,0
			s0.5-0.1,0.7-0.3c0.5-0.4,0.8-1.1,0.7-1.7c-0.1-0.4-0.2-0.7-0.4-1c-0.2-0.2-0.4-0.4-0.7-0.5c-0.1,0-0.3-0.1-0.4-0.1
			c-0.3,0-0.7,0-1,0.1c-0.7,0.2-1.2,0.9-1.2,1.7c0,0.2,0,0.4,0.1,0.6c0.1,0.3,0.2,0.5,0.4,0.7c0.2,0.3,0.5,0.4,0.8,0.5
			C24.2,12.7,24.3,12.7,24.5,12.7z"/>
		<path d="M16.6,14.1c-0.2,0-0.4,0-0.7-0.1s-0.6-0.2-0.9-0.4c-0.3-0.2-0.6-0.5-0.9-0.8c-0.2-0.3-0.4-0.5-0.5-0.9
			c-0.2-0.6-0.2-1.2-0.1-1.7c0.1-0.3,0.2-0.7,0.4-1c0.2-0.4,0.5-0.6,0.8-0.9C15,8.2,15.4,8,15.8,7.9c0.2-0.1,0.4-0.1,0.6-0.1
			c0.3,0,0.6,0,1,0.1s0.8,0.3,1.2,0.5c0.2,0.1,0.3,0.3,0.4,0.4l0,0v0.1l0,0c-0.3,0.2-0.5,0.5-0.8,0.7c-0.1,0.1-0.1,0.1-0.2,0
			c-0.2-0.2-0.4-0.4-0.7-0.5C17.2,9,17.1,9,16.9,9c-0.2,0-0.4,0-0.6,0c-0.3,0-0.5,0.1-0.7,0.3C15.3,9.5,15.2,9.7,15,10
			c-0.1,0.2-0.1,0.3-0.1,0.5s0,0.3,0,0.5s0.1,0.4,0.2,0.6c0.1,0.2,0.2,0.4,0.4,0.6c0.3,0.2,0.6,0.4,1,0.4c0.1,0,0.3,0,0.4,0
			c0.4,0,0.7-0.2,1-0.5L18,12h0.1l0,0c0.3,0.2,0.6,0.5,0.8,0.7c0,0,0,0,0.1,0.1c0,0,0,0,0,0.1c0,0,0,0-0.1,0.1
			c-0.2,0.2-0.4,0.4-0.7,0.6C18,13.9,17.7,14,17.4,14C17.2,14.1,16.9,14.1,16.6,14.1C16.7,14.1,16.6,14.1,16.6,14.1z"/>
		<path class="st2" d="M18.5,6C18.5,6.1,18.6,6.1,18.5,6c0.2,0.2,0.4,0.4,0.6,0.6s0.4,0.5,0.5,0.8c0,0.1,0,0.1,0,0.2s0,0.2-0.1,0.4
			l0,0l0,0h-0.1c-0.3,0-0.5-0.1-0.8-0.1c-0.2-0.1-0.3-0.1-0.5-0.2c-0.4-0.3-0.7-0.7-0.9-1.2C17.1,6,17,5.5,17,5l0,0
			c0-0.1,0-0.1,0.1-0.1c0.2,0,0.3,0,0.5-0.1c0.4,0,0.7,0,1.1,0.2c0.4,0.1,0.8,0.4,1.1,0.7c0,0,0.1,0.1,0.1,0.2C20,5.9,20,5.9,20,6
			c-0.1,0.3-0.1,0.5-0.2,0.8c0,0.1,0,0.1,0,0.2c0,0,0,0-0.1,0l0,0c0,0,0,0-0.1-0.1c-0.2-0.2-0.4-0.5-0.7-0.6
			C18.8,6.2,18.7,6.1,18.5,6C18.6,6.1,18.6,6.1,18.5,6z"/>
		<g>
			<path d="M20.1,6.8c0,0.1,0,0.2-0.1,0.3c-0.1,0.3-0.1,0.7-0.2,1c0,0.2-0.1,0.5-0.1,0.7c0,0.4,0,0.8,0,1.2v0.1c0,0.1,0,0.1,0.1,0.1
				s0.3,0,0.4,0h0.1c0.1,0,0.1,0,0.1-0.1V10c0-0.1,0-0.2,0-0.3c0-0.3,0-0.7,0-1c0-0.1,0-0.2-0.1-0.2c-0.1-0.1-0.1-0.3-0.2-0.5l0,0
				C20.2,7.7,20.1,7.3,20.1,6.8z"/>
		</g>
	</g>
	<path class="st2" d="M20.3,7.5c0.1-0.3,0.2-0.5,0.4-0.7C21.2,6,21.8,5.5,22.6,5c0,0,0,0,0.1,0l0,0l0,0l0,0l-0.1,0.1
		c-0.3,0.2-0.5,0.5-0.7,0.8c-0.3,0.4-0.6,0.8-0.8,1.3C21,7.3,21,7.5,20.9,7.7v0.1c0,0,0,0,0,0.1H21c0.2,0,0.4,0,0.6,0
		c0.4,0,0.7-0.1,1.1-0.3c0.5-0.2,0.9-0.6,1.2-1c0.3-0.5,0.5-1,0.6-1.5c0-0.2,0.1-0.4,0.1-0.7c0-0.3,0-0.7-0.1-1l0,0
		c0-0.1,0-0.1-0.1-0.1h-0.1c-0.4,0-0.8,0-1.1,0.1c-0.5,0.1-1,0.3-1.5,0.6c-0.4,0.3-0.8,0.7-1,1.1s-0.3,0.8-0.4,1.2
		c0,0.1,0,0.3-0.1,0.4c0,0.1,0,0.1,0,0.2c0.1,0.4,0.1,0.9,0.3,1.2l0,0V8C20.3,7.7,20.3,7.6,20.3,7.5z"/>
</g>
</svg>
